<svg width="24" height="24" viewBox="0 0 24 24" fill="none" xmlns="http://www.w3.org/2000/svg">
<g clip-path="url(#clip0_1_788)">
<path d="M12 24C18.6274 24 24 18.6274 24 12C24 5.37258 18.6274 0 12 0C5.37258 0 0 5.37258 0 12C0 18.6274 5.37258 24 12 24Z" fill="#FD9468"/>
<path d="M18.9613 2.22449C19.6993 3.78299 20.1128 5.52514 20.1128 7.3641C20.1128 14.0048 14.7294 19.3882 8.08862 19.3882C5.52071 19.3882 3.14119 18.5827 1.18787 17.2114C3.12765 21.2286 7.24013 23.9999 12.0001 23.9999C18.6275 23.9999 24.0001 18.6274 24.0001 11.9999C24.0001 7.9678 22.0113 4.40033 18.9613 2.22449Z" fill="#FE7D43"/>
<path d="M12 22.4492C17.7709 22.4492 22.4492 17.7709 22.4492 12C22.4492 6.22914 17.7709 1.5509 12 1.5509C6.22914 1.5509 1.5509 6.22914 1.5509 12C1.5509 17.7709 6.22914 22.4492 12 22.4492Z" fill="#FFDCCE"/>
<path d="M16.2321 12.2178C16.6807 11.8757 17.0253 11.383 17.1818 10.788C17.5501 9.38724 16.7413 7.94494 15.3789 7.57284L15.1173 7.50141L15.3357 6.67102C15.4346 6.2948 15.222 5.90981 14.8608 5.81114C14.4995 5.71247 14.1265 5.93752 14.0276 6.31374L13.8092 7.14413L12.3663 6.75005L12.5846 5.91966C12.6836 5.54344 12.471 5.15845 12.1097 5.05983C11.7485 4.96116 11.3755 5.1862 11.2765 5.56242L11.0581 6.39281L9.20168 5.88577C8.84046 5.78709 8.46743 6.01214 8.36848 6.38836C8.26952 6.76458 8.48215 7.14956 8.84341 7.24819L9.9071 7.53872L8.22096 13.9506L7.15727 13.66C6.79606 13.5614 6.42302 13.7864 6.32407 14.1626C6.22512 14.5388 6.43774 14.9238 6.79901 15.0225L8.65545 15.5295L8.46996 16.2348C8.37101 16.6111 8.58363 16.996 8.9449 17.0947C9.30612 17.1934 9.67915 16.9683 9.7781 16.5921L9.96359 15.8868L11.4065 16.2809L11.221 16.9862C11.1221 17.3624 11.3347 17.7474 11.6959 17.846C12.0572 17.9447 12.4302 17.7196 12.5291 17.3434L12.7146 16.6381L13.5378 16.863C14.9914 17.2599 16.4935 16.3675 16.8863 14.8736C17.1431 13.8968 16.863 12.9011 16.2321 12.2178ZM15.0206 8.93522C15.6618 9.11035 16.0444 9.78117 15.8736 10.4306C15.7028 11.0801 15.0423 11.466 14.4011 11.2909L12.1219 10.6684L10.5957 10.2516L11.2152 7.89591L15.0206 8.93522ZM13.8961 15.5004L9.5291 14.3078L10.2375 11.614L11.7636 12.0308L14.0428 12.6533L14.6044 12.8067C15.3366 13.0067 15.7735 13.7736 15.5781 14.5163C15.3829 15.2589 14.6283 15.7004 13.8961 15.5004Z" fill="#FD9468"/>
<path d="M19.9136 5.17651C20.044 5.88597 20.1127 6.61703 20.1127 7.36417C20.1127 14.0049 14.7293 19.3883 8.08858 19.3883C6.63199 19.3883 5.23591 19.1292 3.94385 18.6547C5.86038 20.9724 8.75772 22.4492 12 22.4492C17.7709 22.4492 22.4492 17.7709 22.4492 12C22.4492 9.39198 21.4935 7.00726 19.9136 5.17651Z" fill="#FFD1BE"/>
</g>
<defs>
<clipPath id="clip0_1_788">
<rect width="24" height="24" fill="white"/>
</clipPath>
</defs>
</svg>
