<svg width="25" height="24" viewBox="0 0 25 24" fill="none" xmlns="http://www.w3.org/2000/svg">
<path d="M12.353 24C19.0454 24 24.4706 18.6274 24.4706 12C24.4706 5.37258 19.0454 0 12.353 0C5.66061 0 0.235352 5.37258 0.235352 12C0.235352 18.6274 5.66061 24 12.353 24Z" fill="#8AC9FE"/>
<path d="M18.3654 1.57935C19.6197 3.46925 20.3501 5.7305 20.3501 8.16106C20.3501 14.7885 14.9248 20.1611 8.23245 20.1611C6.04437 20.1611 3.99185 19.5865 2.21997 18.5818C4.38576 21.8451 8.11492 24.0001 12.3529 24.0001C19.0453 24.0001 24.4706 18.6275 24.4706 12.0001C24.4706 7.5395 22.0128 3.64761 18.3654 1.57935Z" fill="#60B7FF"/>
<path d="M12.3531 22.4492C18.1806 22.4492 22.9047 17.7709 22.9047 12C22.9047 6.22914 18.1806 1.5509 12.3531 1.5509C6.52562 1.5509 1.80151 6.22914 1.80151 12C1.80151 17.7709 6.52562 22.4492 12.3531 22.4492Z" fill="#EAF6FF"/>
<path d="M12.3529 17.8476C12.2236 17.8476 12.0942 17.8154 11.9775 17.7509L7.37866 15.2085C7.13493 15.0738 6.98389 14.819 6.98389 14.5425V9.45777C6.98389 9.18135 7.13493 8.92654 7.37866 8.79182L11.9775 6.24946C12.2109 6.12046 12.495 6.12046 12.7284 6.24946L17.3272 8.79182C17.571 8.92654 17.722 9.18135 17.722 9.45777V14.5425C17.722 14.819 17.571 15.0738 17.3272 15.2085L12.7284 17.7509C12.6117 17.8154 12.4823 17.8476 12.3529 17.8476ZM8.72722 14.207L12.16 16.1046C12.2799 16.171 12.426 16.171 12.5459 16.1046L15.9787 14.207C16.104 14.1377 16.1816 14.0067 16.1816 13.8646V10.1356C16.1816 9.99356 16.104 9.86254 15.9787 9.79331L12.5459 7.89562C12.426 7.82929 12.2799 7.82929 12.16 7.89562L8.72722 9.79331C8.60192 9.86259 8.52429 9.99356 8.52429 10.1356V13.8646C8.52425 14.0067 8.60192 14.1377 8.72722 14.207Z" fill="#60B7FF"/>
<path d="M19.8099 4.60718C20.161 5.73021 20.3503 6.92369 20.3503 8.16101C20.3503 14.7884 14.925 20.161 8.23265 20.161C7.24108 20.161 6.27763 20.0422 5.35522 19.8197C7.21765 21.4554 9.66802 22.4492 12.3532 22.4492C18.1807 22.4492 22.9047 17.7709 22.9047 12.0001C22.9047 9.11243 21.7219 6.4984 19.8099 4.60718Z" fill="#D8ECFE"/>
</svg>
