<svg width="33" height="33" viewBox="0 0 33 33" fill="none" xmlns="http://www.w3.org/2000/svg">
<path d="M16.035 0C7.194 0 0 7.192 0 16.034C0 24.876 7.194 32.068 16.035 32.068C24.876 32.068 32.07 24.876 32.07 16.034C32.07 7.192 24.876 0 16.035 0ZM16.035 31C7.783 31 1.07 24.286 1.07 16.034C1.07 7.782 7.783 1.068 16.035 1.068C24.287 1.068 31 7.782 31 16.034C31 24.286 24.287 31 16.035 31Z" fill="#005289"/>
<path d="M19.535 7.03398H16.867C13.469 6.99998 13.035 9.10298 13.035 11.379V13.034H11.535C11.4672 13.0249 11.3983 13.0316 11.3335 13.0535C11.2687 13.0755 11.2098 13.112 11.1615 13.1604C11.1131 13.2088 11.0765 13.2676 11.0546 13.3324C11.0327 13.3972 11.026 13.4662 11.035 13.534V16.534C11.026 16.6018 11.0327 16.6707 11.0546 16.7355C11.0765 16.8003 11.1131 16.8592 11.1615 16.9076C11.2098 16.9559 11.2687 16.9925 11.3335 17.0144C11.3983 17.0363 11.4672 17.043 11.535 17.034H13.035V24.534C13.0267 24.6019 13.034 24.6708 13.0564 24.7355C13.0788 24.8002 13.1156 24.8589 13.1642 24.9071C13.2127 24.9553 13.2716 24.9918 13.3364 25.0138C13.4012 25.0358 13.4702 25.0427 13.538 25.034H16.593C16.888 25.068 17.127 24.829 17.033 24.534L17.035 17.034H19.535C19.6028 17.043 19.6718 17.0363 19.7366 17.0144C19.8014 16.9925 19.8603 16.9559 19.9086 16.9076C19.957 16.8592 19.9936 16.8003 20.0155 16.7355C20.0374 16.6707 20.0441 16.6018 20.035 16.534V13.534C20.0441 13.4662 20.0374 13.3972 20.0155 13.3324C19.9936 13.2676 19.957 13.2088 19.9086 13.1604C19.8603 13.112 19.8014 13.0755 19.7366 13.0535C19.6718 13.0316 19.6028 13.0249 19.535 13.034H17.032L17.035 11.534C17.132 10.895 17.132 10.999 17.725 11.034H19.514C19.653 11.003 19.801 11.02 19.905 10.919C20.009 10.818 20.069 10.68 20.034 10.534V7.53398C20.0433 7.46623 20.0367 7.39727 20.0149 7.33247C19.9931 7.26767 19.9567 7.20878 19.9084 7.16039C19.8601 7.112 19.8013 7.07541 19.7365 7.05348C19.6718 7.03156 19.6028 7.02488 19.535 7.03398ZM19 9.97798L17.746 9.92998C16.193 9.92998 16.063 10.773 16.063 11.636L16.059 13.532C16.0589 13.6022 16.0726 13.6717 16.0994 13.7366C16.1262 13.8015 16.1655 13.8605 16.2151 13.9102C16.2647 13.9599 16.3236 13.9993 16.3885 14.0262C16.4533 14.0531 16.5228 14.067 16.593 14.067H19.035V15.999H16.595C16.4533 15.999 16.3174 16.0552 16.2171 16.1553C16.1168 16.2554 16.0603 16.3913 16.06 16.533L16.059 24.034H14.035V16.534C14.035 16.239 13.834 16 13.538 16H12.035V14.068H13.538C13.6082 14.0681 13.6777 14.0544 13.7426 14.0276C13.8074 14.0008 13.8664 13.9615 13.916 13.912C14.016 13.811 14.034 13.675 14.034 13.533V11.378C14.034 9.13598 14.487 8.06798 16.866 8.06798H18.999V9.97798H19Z" fill="#005289"/>
</svg>
