<svg width="33" height="33" viewBox="0 0 33 33" fill="none" xmlns="http://www.w3.org/2000/svg">
<path d="M19.5839 12.0202C18.9059 12.0202 18.4039 12.1912 18.0109 12.4072C17.9479 12.1832 17.7409 12.0192 17.4969 12.0682H14.5129C14.2179 12.0192 13.9789 12.2582 14.0699 12.5682V23.5682C13.9789 23.8482 14.2179 24.0882 14.5129 24.0682H17.4969C17.7919 24.0882 18.0309 23.8482 18.0309 23.5532L18.0299 16.9052C18.0289 16.9022 18.0179 16.5842 18.2189 16.3652C18.3799 16.1912 18.6569 16.1022 19.0399 16.1022C19.6779 16.1022 19.9619 16.3632 20.0679 16.9472V23.5532C19.9629 23.8482 20.2019 24.0882 20.4969 24.0682H23.6419C23.9369 24.0882 24.1759 23.8482 24.0699 23.5532V16.7252C24.1749 13.2532 21.7019 12.0202 19.5839 12.0202ZM23.1069 23.0682H21.0309V16.9472C21.0309 15.7662 20.2679 15.0342 19.0409 15.0342C18.3469 15.0342 17.8069 15.2382 17.4349 15.6402C16.9179 16.2002 16.9579 16.9102 17.0689 17.0682V23.0682H15.0469V13.0882H16.9629V13.4242C16.9621 13.5243 16.9896 13.6226 17.0422 13.7077C17.0947 13.7929 17.1703 13.8615 17.2601 13.9057C17.3499 13.9499 17.4504 13.9678 17.5499 13.9575C17.6495 13.9471 17.7441 13.9089 17.8229 13.8472L17.9629 13.7392C18.3679 13.4202 18.7869 13.0892 19.5849 13.0892C20.4109 13.0892 23.1079 13.3522 23.1079 16.7262V23.0682H23.1069ZM11.0689 7.03418C9.94691 7.03418 9.03491 7.94618 9.03491 9.06818C9.03491 10.1902 9.94691 11.1022 11.0689 11.1022C12.1909 11.1022 13.1029 10.1902 13.1029 9.06818C13.1029 7.94618 12.1909 7.03418 11.0689 7.03418ZM11.0689 10.0342C10.5369 10.0342 10.1029 9.60018 10.1029 9.06818C10.1029 8.53618 10.5369 8.10218 11.0689 8.10218C11.6009 8.10218 12.0349 8.53618 12.0349 9.06818C12.0349 9.60018 11.6009 10.0342 11.0689 10.0342ZM12.4969 12.0192H9.52891C9.23391 12.0192 8.99491 12.2582 9.06891 12.5682V23.5682C8.99491 23.8482 9.23391 24.0882 9.52891 24.0682H12.4969C12.7919 24.0882 13.0309 23.8482 13.0309 23.5532V12.5532C13.0309 12.4116 12.9747 12.2757 12.8745 12.1756C12.7744 12.0754 12.6385 12.0192 12.4969 12.0192ZM12.0689 23.0682H10.0629V13.0882H12.0689V23.0682Z" fill="#005289"/>
<path d="M16.0689 0.0341797C7.22691 0.0341797 0.0349121 7.22618 0.0349121 16.0682C0.0349121 24.9102 7.22691 32.1022 16.0689 32.1022C24.9109 32.1022 32.1029 24.9102 32.1029 16.0682C32.1029 7.22618 24.9109 0.0341797 16.0689 0.0341797ZM16.0689 31.0342C7.81691 31.0342 1.10291 24.3202 1.10291 16.0682C1.10291 7.81618 7.81691 1.10218 16.0689 1.10218C24.3209 1.10218 31.0349 7.81618 31.0349 16.0682C31.0349 24.3202 24.3209 31.0342 16.0689 31.0342Z" fill="#005289"/>
</svg>
