<svg width="25" height="24" viewBox="0 0 25 24" fill="none" xmlns="http://www.w3.org/2000/svg">
<g clip-path="url(#clip0_1_797)">
<path d="M12.1176 24C18.81 24 24.2353 18.6274 24.2353 12C24.2353 5.37258 18.81 0 12.1176 0C5.42526 0 0 5.37258 0 12C0 18.6274 5.42526 24 12.1176 24Z" fill="#B6C4CF"/>
<path d="M17.6727 1.33264C18.9717 3.24739 19.7284 5.55289 19.7248 8.03318C19.7153 14.6606 14.2823 20.0255 7.58992 20.0161C5.59382 20.0133 3.71132 19.5325 2.05225 18.6835C4.22424 21.8851 7.91269 23.9941 12.1005 24C18.7929 24.0094 24.2259 18.6445 24.2354 12.0171C24.2421 7.36639 21.5761 3.33008 17.6727 1.33264Z" fill="#8D9CA8"/>
<path d="M12.1177 22.4492C17.9452 22.4492 22.6693 17.7709 22.6693 12C22.6693 6.22914 17.9452 1.5509 12.1177 1.5509C6.29027 1.5509 1.56616 6.22914 1.56616 12C1.56616 17.7709 6.29027 22.4492 12.1177 22.4492Z" fill="#F5F8F9"/>
<path d="M19.0819 4.15063C19.5002 5.36878 19.7266 6.67471 19.7247 8.03315C19.7152 14.6606 14.2822 20.0255 7.58981 20.0161C6.71275 20.0149 5.85789 19.9205 5.03394 19.7441C6.90285 21.4216 9.38161 22.4453 12.1026 22.4491C17.9301 22.4573 22.6609 17.7858 22.6692 12.0149C22.6737 8.88163 21.2848 6.06895 19.0819 4.15063Z" fill="#E8EDF2"/>
<path d="M15.4056 16.4078L11.0679 16.4017L11.9232 13.2972L13.8998 12.6923C14.2852 12.5744 14.501 12.1699 14.3816 11.7888C14.2623 11.4078 13.8532 11.1946 13.4678 11.3125L12.3782 11.6459L13.64 7.06593C13.746 6.68109 13.5164 6.28415 13.1271 6.17934C12.7379 6.07462 12.3363 6.30154 12.2302 6.68638L10.7244 12.152L8.60527 12.8005C8.21987 12.9185 8.00412 13.3229 8.12345 13.704C8.22039 14.0136 8.50861 14.2124 8.82007 14.2128C8.89193 14.2129 8.96506 14.2025 9.03734 14.1803L10.2695 13.8033L9.40731 16.9328C9.34752 17.1498 9.39339 17.3819 9.53137 17.5606C9.66935 17.7394 9.88368 17.8445 10.1111 17.8448L15.4036 17.8522C15.807 17.8528 16.1345 17.5299 16.1352 17.1311C16.1356 16.7322 15.809 16.4084 15.4056 16.4078Z" fill="#B6C4CF"/>
</g>
<defs>
<clipPath id="clip0_1_797">
<rect width="24.2353" height="24" fill="white"/>
</clipPath>
</defs>
</svg>
