<svg width="313" height="45" viewBox="0 0 313 45" fill="none" xmlns="http://www.w3.org/2000/svg">
<path d="M73.032 17.02H66.8767V29.6313H64.0837V17.02H57.9177V14.2271H73.032V17.02ZM89.8972 25.0981C89.8972 25.6496 89.8256 26.1473 89.6824 26.5913C89.5463 27.0282 89.3637 27.4149 89.1345 27.7515C88.9054 28.0881 88.6368 28.3745 88.3289 28.6108C88.0209 28.8472 87.7022 29.0405 87.3728 29.1909C87.0434 29.3413 86.7068 29.4523 86.363 29.5239C86.0264 29.5955 85.7078 29.6313 85.407 29.6313H74.6326V26.8384H85.407C85.9441 26.8384 86.3595 26.6808 86.6531 26.3657C86.9539 26.0506 87.1042 25.6281 87.1042 25.0981C87.1042 24.8403 87.0649 24.604 86.9861 24.3892C86.9073 24.1743 86.7927 23.9881 86.6423 23.8306C86.4991 23.673 86.3201 23.5513 86.1052 23.4653C85.8975 23.3794 85.6648 23.3364 85.407 23.3364H78.9832C78.532 23.3364 78.045 23.2576 77.5222 23.1001C76.9994 22.9354 76.5125 22.674 76.0613 22.3159C75.6173 21.9578 75.2449 21.4888 74.9441 20.9087C74.6505 20.3286 74.5037 19.6196 74.5037 18.7817C74.5037 17.9438 74.6505 17.2384 74.9441 16.6655C75.2449 16.0854 75.6173 15.6164 76.0613 15.2583C76.5125 14.8931 76.9994 14.6317 77.5222 14.4741C78.045 14.3094 78.532 14.2271 78.9832 14.2271H88.49V17.02H78.9832C78.4532 17.02 78.0378 17.1812 77.7371 17.5034C77.4434 17.8257 77.2966 18.2518 77.2966 18.7817C77.2966 19.3188 77.4434 19.745 77.7371 20.0601C78.0378 20.368 78.4532 20.522 78.9832 20.522H85.407H85.4285C85.7292 20.5291 86.0479 20.5721 86.3845 20.6509C86.7211 20.7225 87.0541 20.8371 87.3835 20.9946C87.7201 21.1522 88.0388 21.3527 88.3396 21.5962C88.6404 21.8325 88.9054 22.119 89.1345 22.4556C89.3708 22.7922 89.557 23.1789 89.6931 23.6157C89.8292 24.0526 89.8972 24.5467 89.8972 25.0981ZM107.31 28.2241C107.31 28.4246 107.274 28.6108 107.203 28.7827C107.131 28.9546 107.031 29.105 106.902 29.2339C106.773 29.3556 106.623 29.4523 106.451 29.5239C106.279 29.5955 106.096 29.6313 105.903 29.6313H99.6082C99.0138 29.6313 98.4122 29.5669 97.8035 29.438C97.1947 29.3091 96.6039 29.1121 96.031 28.8472C95.4653 28.575 94.9317 28.2313 94.4304 27.8159C93.9291 27.4006 93.4887 26.91 93.1091 26.3442C92.7367 25.7713 92.4431 25.1196 92.2283 24.3892C92.0134 23.6515 91.906 22.8315 91.906 21.9292V14.2271H94.699V21.9292C94.699 22.717 94.8064 23.383 95.0212 23.9272C95.2432 24.4715 95.5225 24.9263 95.8591 25.2915C96.1957 25.6567 96.5645 25.9432 96.9656 26.1509C97.3666 26.3586 97.7462 26.5125 98.1042 26.6128C98.4695 26.7131 98.7882 26.7775 99.0603 26.8062C99.3396 26.8276 99.5222 26.8384 99.6082 26.8384H104.517V14.2271H107.31V28.2241ZM125.959 28.439C125.959 28.6395 125.919 28.8257 125.841 28.9976C125.769 29.1694 125.669 29.3198 125.54 29.4487C125.418 29.5705 125.271 29.6672 125.099 29.7388C124.927 29.8104 124.745 29.8462 124.552 29.8462C124.38 29.8462 124.204 29.814 124.025 29.7495C123.853 29.6851 123.699 29.5812 123.563 29.438L113.358 18.7817V29.6313H110.565V15.4194C110.565 15.133 110.644 14.8752 110.802 14.646C110.966 14.4097 111.174 14.2342 111.425 14.1196C111.69 14.0122 111.962 13.9871 112.241 14.0444C112.52 14.0946 112.76 14.2235 112.961 14.4312L123.166 25.0767V14.2271H125.959V28.439ZM144.328 29.6313H141.535V25.8501H131.717V29.6313H128.924V21.9292C128.924 20.8049 129.117 19.77 129.504 18.8247C129.89 17.8794 130.427 17.0666 131.115 16.3862C131.802 15.7059 132.615 15.1759 133.553 14.7964C134.492 14.4168 135.516 14.2271 136.626 14.2271H142.921C143.114 14.2271 143.297 14.2629 143.469 14.3345C143.64 14.4061 143.791 14.5063 143.92 14.6353C144.049 14.7642 144.149 14.9146 144.22 15.0864C144.292 15.2583 144.328 15.4409 144.328 15.6343V29.6313ZM131.717 23.0571H141.535V17.02H136.626C136.54 17.02 136.357 17.0343 136.078 17.063C135.806 17.0845 135.487 17.1453 135.122 17.2456C134.764 17.3459 134.384 17.4998 133.983 17.7075C133.582 17.9152 133.213 18.2017 132.877 18.5669C132.54 18.9321 132.261 19.3905 132.039 19.9419C131.824 20.4862 131.717 21.1486 131.717 21.9292V23.0571ZM165.511 29.6313H162.697V20.4575L157.745 29.1694C157.623 29.3914 157.451 29.5597 157.229 29.6743C157.014 29.7889 156.782 29.8462 156.531 29.8462C156.288 29.8462 156.058 29.7889 155.844 29.6743C155.636 29.5597 155.471 29.3914 155.349 29.1694L150.376 20.4575V29.6313H147.583V15.4194C147.583 15.0972 147.676 14.8107 147.862 14.5601C148.055 14.3094 148.306 14.1411 148.614 14.0552C148.764 14.0194 148.915 14.0086 149.065 14.0229C149.216 14.0301 149.359 14.0623 149.495 14.1196C149.638 14.1698 149.767 14.245 149.882 14.3452C149.996 14.4383 150.093 14.5529 150.172 14.689L156.531 25.7427L162.89 14.689C163.055 14.4168 163.281 14.2235 163.567 14.1089C163.861 13.9943 164.165 13.9764 164.48 14.0552C164.781 14.1411 165.028 14.3094 165.221 14.5601C165.415 14.8107 165.511 15.0972 165.511 15.4194V29.6313ZM171.581 29.6313H168.788V14.2271H171.581V29.6313Z" fill="white"/>
<path d="M184.815 20.522H194.623V14.2271H197.416V29.6313H194.623V23.3364H184.815V29.6313H182.022V14.2271H184.815V20.522ZM216.859 23.4009C216.859 24.339 216.698 25.202 216.376 25.9897C216.053 26.7775 215.606 27.4578 215.033 28.0308C214.46 28.6037 213.78 29.0513 212.992 29.3735C212.211 29.6886 211.359 29.8462 210.435 29.8462H206.654C205.73 29.8462 204.874 29.6886 204.087 29.3735C203.299 29.0513 202.619 28.6037 202.046 28.0308C201.473 27.4578 201.022 26.7775 200.692 25.9897C200.37 25.202 200.209 24.339 200.209 23.4009V20.4575C200.209 19.5265 200.37 18.6672 200.692 17.8794C201.022 17.0845 201.473 16.4041 202.046 15.8384C202.619 15.2655 203.299 14.8179 204.087 14.4956C204.874 14.1733 205.73 14.0122 206.654 14.0122H210.435C211.359 14.0122 212.211 14.1733 212.992 14.4956C213.78 14.8179 214.46 15.2655 215.033 15.8384C215.606 16.4041 216.053 17.0845 216.376 17.8794C216.698 18.6672 216.859 19.5265 216.859 20.4575V23.4009ZM214.066 20.4575C214.066 19.9061 213.977 19.4084 213.798 18.9644C213.626 18.5132 213.379 18.13 213.056 17.8149C212.741 17.4927 212.358 17.2456 211.907 17.0737C211.463 16.8947 210.972 16.8052 210.435 16.8052H206.654C206.11 16.8052 205.612 16.8947 205.161 17.0737C204.717 17.2456 204.334 17.4927 204.011 17.8149C203.689 18.13 203.439 18.5132 203.26 18.9644C203.088 19.4084 203.002 19.9061 203.002 20.4575V23.4009C203.002 23.9523 203.088 24.4536 203.26 24.9048C203.439 25.3488 203.689 25.7319 204.011 26.0542C204.334 26.3693 204.717 26.6164 205.161 26.7954C205.612 26.9673 206.11 27.0532 206.654 27.0532H210.414C210.958 27.0532 211.452 26.9673 211.896 26.7954C212.347 26.6164 212.734 26.3693 213.056 26.0542C213.379 25.7319 213.626 25.3488 213.798 24.9048C213.977 24.4536 214.066 23.9523 214.066 23.4009V20.4575ZM233.767 29.6313H221.027C220.827 29.6313 220.64 29.5955 220.469 29.5239C220.297 29.4523 220.146 29.3556 220.017 29.2339C219.896 29.105 219.799 28.9546 219.727 28.7827C219.656 28.6108 219.62 28.4246 219.62 28.2241V14.2271H222.413V26.8384H233.767V29.6313ZM251.191 23.186C251.191 24.1242 251.026 24.9871 250.697 25.7749C250.375 26.5627 249.927 27.243 249.354 27.8159C248.781 28.3817 248.101 28.8257 247.313 29.1479C246.525 29.4702 245.67 29.6313 244.746 29.6313H237.205C237.004 29.6313 236.818 29.5955 236.646 29.5239C236.474 29.4523 236.324 29.3556 236.195 29.2339C236.073 29.105 235.977 28.9546 235.905 28.7827C235.833 28.6108 235.798 28.4246 235.798 28.2241V15.6343C235.798 15.4409 235.833 15.2583 235.905 15.0864C235.977 14.9146 236.073 14.7642 236.195 14.6353C236.324 14.5063 236.474 14.4061 236.646 14.3345C236.818 14.2629 237.004 14.2271 237.205 14.2271H244.746C245.67 14.2271 246.525 14.3882 247.313 14.7104C248.101 15.0327 248.781 15.4803 249.354 16.0532C249.927 16.619 250.375 17.2993 250.697 18.0942C251.026 18.882 251.191 19.7414 251.191 20.6724V23.186ZM248.398 20.6724C248.398 20.1281 248.309 19.6304 248.13 19.1792C247.958 18.728 247.711 18.3449 247.388 18.0298C247.066 17.7075 246.679 17.4604 246.228 17.2886C245.784 17.1095 245.29 17.02 244.746 17.02H238.591V26.8384H244.746C245.29 26.8384 245.784 26.7524 246.228 26.5806C246.679 26.4015 247.066 26.1545 247.388 25.8394C247.711 25.5171 247.958 25.134 248.13 24.6899C248.309 24.2388 248.398 23.7375 248.398 23.186V20.6724ZM256.745 29.6313H253.952V14.2271H256.745V29.6313ZM275.404 28.439C275.404 28.6395 275.365 28.8257 275.286 28.9976C275.214 29.1694 275.114 29.3198 274.985 29.4487C274.863 29.5705 274.717 29.6672 274.545 29.7388C274.373 29.8104 274.19 29.8462 273.997 29.8462C273.825 29.8462 273.649 29.814 273.47 29.7495C273.299 29.6851 273.145 29.5812 273.009 29.438L262.803 18.7817V29.6313H260.01V15.4194C260.01 15.133 260.089 14.8752 260.247 14.646C260.412 14.4097 260.619 14.2342 260.87 14.1196C261.135 14.0122 261.407 13.9871 261.686 14.0444C261.966 14.0946 262.205 14.2235 262.406 14.4312L272.611 25.0767V14.2271H275.404V28.439ZM293.859 28.2241C293.859 28.4246 293.823 28.6108 293.752 28.7827C293.68 28.9546 293.58 29.105 293.451 29.2339C293.329 29.3556 293.182 29.4523 293.01 29.5239C292.839 29.5955 292.652 29.6313 292.452 29.6313H282.376C282.118 29.6313 281.839 29.6027 281.538 29.5454C281.244 29.481 280.951 29.3843 280.657 29.2554C280.371 29.1265 280.095 28.9618 279.83 28.7612C279.565 28.5535 279.329 28.3065 279.121 28.02C278.92 27.7264 278.759 27.3898 278.637 27.0103C278.516 26.6235 278.455 26.1903 278.455 25.7104V18.1479C278.455 17.8901 278.483 17.6144 278.541 17.3208C278.605 17.02 278.702 16.7264 278.831 16.4399C278.96 16.1463 279.128 15.867 279.336 15.6021C279.543 15.3371 279.79 15.1043 280.077 14.9038C280.371 14.6961 280.707 14.5314 281.087 14.4097C281.466 14.2879 281.896 14.2271 282.376 14.2271H293.73V17.02H282.376C282.01 17.02 281.731 17.1167 281.538 17.3101C281.344 17.5034 281.248 17.7899 281.248 18.1694V25.7104C281.248 26.0685 281.344 26.3478 281.538 26.5483C281.738 26.7417 282.018 26.8384 282.376 26.8384H291.066V23.3364H283.633V20.522H292.452C292.652 20.522 292.839 20.5614 293.01 20.6401C293.182 20.7118 293.329 20.812 293.451 20.9409C293.58 21.0698 293.68 21.2202 293.752 21.3921C293.823 21.5568 293.859 21.7358 293.859 21.9292V28.2241ZM311.573 25.0981C311.573 25.6496 311.501 26.1473 311.358 26.5913C311.222 27.0282 311.039 27.4149 310.81 27.7515C310.581 28.0881 310.313 28.3745 310.005 28.6108C309.697 28.8472 309.378 29.0405 309.049 29.1909C308.719 29.3413 308.383 29.4523 308.039 29.5239C307.702 29.5955 307.384 29.6313 307.083 29.6313H296.308V26.8384H307.083C307.62 26.8384 308.035 26.6808 308.329 26.3657C308.63 26.0506 308.78 25.6281 308.78 25.0981C308.78 24.8403 308.741 24.604 308.662 24.3892C308.583 24.1743 308.469 23.9881 308.318 23.8306C308.175 23.673 307.996 23.5513 307.781 23.4653C307.573 23.3794 307.341 23.3364 307.083 23.3364H300.659C300.208 23.3364 299.721 23.2576 299.198 23.1001C298.675 22.9354 298.188 22.674 297.737 22.3159C297.293 21.9578 296.921 21.4888 296.62 20.9087C296.326 20.3286 296.179 19.6196 296.179 18.7817C296.179 17.9438 296.326 17.2384 296.62 16.6655C296.921 16.0854 297.293 15.6164 297.737 15.2583C298.188 14.8931 298.675 14.6317 299.198 14.4741C299.721 14.3094 300.208 14.2271 300.659 14.2271H310.166V17.02H300.659C300.129 17.02 299.714 17.1812 299.413 17.5034C299.119 17.8257 298.972 18.2518 298.972 18.7817C298.972 19.3188 299.119 19.745 299.413 20.0601C299.714 20.368 300.129 20.522 300.659 20.522H307.083H307.104C307.405 20.5291 307.724 20.5721 308.06 20.6509C308.397 20.7225 308.73 20.8371 309.059 20.9946C309.396 21.1522 309.715 21.3527 310.015 21.5962C310.316 21.8325 310.581 22.119 310.81 22.4556C311.047 22.7922 311.233 23.1789 311.369 23.6157C311.505 24.0526 311.573 24.5467 311.573 25.0981Z" fill="#60B7FF"/>
<mask id="mask0_54_15" style="mask-type:alpha" maskUnits="userSpaceOnUse" x="0" y="0" width="45" height="45">
<path d="M8.43518 31.2947C7.55389 23.543 12.7157 16.5106 20.1977 14.892C15.1438 18.2013 12.1042 24.1725 12.8416 30.5753C13.615 37.3738 18.4171 42.7334 24.6041 44.55C24.1904 44.5859 23.7768 44.6039 23.3631 44.6039C15.8092 44.6219 9.31647 38.9745 8.43518 31.2947ZM13.0395 11.2589C20.0718 7.87763 28.417 10.4495 32.3918 16.9603C27.6077 13.2733 20.971 12.374 15.1438 15.1797C8.97475 18.1473 5.50355 24.4422 5.80931 30.881C2.55394 23.489 5.70139 14.802 13.0395 11.2589ZM22.4818 0C10.0719 0 0 10.0719 0 22.4998C0 35.0177 10.1258 45.0716 22.6437 44.9996C25.8271 44.9816 28.8667 44.2982 31.6004 43.0752C27.5177 43.9205 23.0933 43.0032 19.6041 40.1795C13.7948 35.4853 12.6078 27.194 16.6186 21.079C15.3955 26.7444 17.32 32.8594 22.1221 36.7443C24.1904 38.4169 26.5645 39.4961 29.0285 39.9817C33.8127 40.9169 38.7227 38.8306 41.3845 34.7479C41.4025 34.7299 41.4025 34.7119 41.4205 34.6939C38.309 37.3738 34.1004 38.7047 29.7479 38.0033C22.3739 36.8162 17.1941 30.2336 17.6437 22.9315C19.4063 28.453 24.1365 32.7875 30.2336 33.7767C32.4278 34.1184 34.586 34.0105 36.6004 33.4889C41.5284 32.2479 44.9636 27.7695 44.9996 22.6797C44.9996 22.6077 44.9996 22.5358 44.9996 22.4458C44.9457 9.98193 34.9278 0 22.4818 0C22.4998 0 22.4818 0 22.4818 0Z" fill="white"/>
</mask>
<g mask="url(#mask0_54_15)">
<path d="M59.2441 5.07175L39.9277 59.2799L-14.2445 39.9815L5.07187 -14.2446L59.2441 5.07175Z" fill="url(#paint0_linear_54_15)"/>
</g>
<defs>
<linearGradient id="paint0_linear_54_15" x1="28.591" y1="5.45128" x2="14.456" y2="45.0982" gradientUnits="userSpaceOnUse">
<stop stop-color="#29A5DE"/>
<stop offset="1" stop-color="#293E8D"/>
</linearGradient>
</defs>
</svg>
