<svg width="25" height="24" viewBox="0 0 25 24" fill="none" xmlns="http://www.w3.org/2000/svg">
<path d="M12.4707 24C19.0981 24 24.4707 18.6274 24.4707 12C24.4707 5.37258 19.0981 0 12.4707 0C5.84329 0 0.470703 5.37258 0.470703 12C0.470703 18.6274 5.84329 24 12.4707 24Z" fill="#5DE1C4"/>
<path d="M18.1668 1.43567C19.3602 3.30045 20.0522 5.51698 20.0522 7.89523C20.0522 14.5227 14.6796 19.8952 8.05216 19.8952C5.99064 19.8952 4.05072 19.3751 2.35596 18.4594C4.48816 21.7912 8.22143 23.9998 12.4706 23.9998C19.0981 23.9998 24.4706 18.6273 24.4706 11.9998C24.4706 7.43393 21.9205 3.46386 18.1668 1.43567Z" fill="#0ED2B3"/>
<path d="M12.4706 22.425C18.2415 22.425 22.9198 17.7468 22.9198 11.9759C22.9198 6.20497 18.2415 1.52673 12.4706 1.52673C6.69972 1.52673 2.02148 6.20497 2.02148 11.9759C2.02148 17.7468 6.69972 22.425 12.4706 22.425Z" fill="#D8F6EF"/>
<path d="M19.4992 4.2301C19.87 5.38632 20.0705 6.61876 20.0705 7.89816C20.0705 14.5256 14.6979 19.8982 8.07052 19.8982C7.12458 19.8982 6.20433 19.7884 5.32153 19.5814C7.1925 21.3459 9.71428 22.4278 12.489 22.4278C18.2599 22.4278 22.9381 17.7496 22.9381 11.9787C22.9382 8.90532 21.6112 6.14204 19.4992 4.2301Z" fill="#C6F2E7"/>
<path d="M15.6665 17.1878H16.8553C17.3271 17.1878 17.7095 16.8073 17.7095 16.338V15.0464C17.1188 15.8416 16.4321 16.561 15.6665 17.1878Z" fill="#0AB69F"/>
<path d="M17.7095 16.3379C17.7095 16.8072 17.3271 17.1876 16.8554 17.1876L12.1724 17.1782C10.8519 17.1043 9.6219 16.5437 8.69997 15.5932C7.75328 14.6171 7.23193 13.3325 7.23193 11.9758C7.23193 9.10195 9.58206 6.76392 12.4707 6.76392C13.8345 6.76392 15.1258 7.28259 16.1069 8.2244C17.0623 9.1416 17.6258 10.3652 17.7001 11.679L17.7095 16.3379ZM16.1207 11.8336C16.0452 9.87496 14.4419 8.34074 12.4707 8.34074C10.456 8.34074 8.81692 9.97139 8.81692 11.9758C8.81692 13.9368 10.3591 15.5318 12.3278 15.6069L16.0083 15.6108C16.0725 15.6108 16.1245 15.5587 16.1245 15.4945L16.1207 11.8336Z" fill="#5DE1C4"/>
</svg>
