<svg width="33" height="33" viewBox="0 0 33 33" fill="none" xmlns="http://www.w3.org/2000/svg">
<path d="M16.0699 0.0341797C7.22891 0.0341797 0.0349121 7.22618 0.0349121 16.0682C0.0349121 24.9102 7.22891 32.1022 16.0699 32.1022C24.9109 32.1022 32.1049 24.9102 32.1049 16.0682C32.1049 7.22618 24.9109 0.0341797 16.0699 0.0341797ZM16.0699 31.0342C7.81791 31.0342 1.10491 24.3202 1.10491 16.0682C1.10491 7.81618 7.81791 1.10218 16.0699 1.10218C24.3219 1.10218 31.0349 7.81618 31.0349 16.0682C31.0349 24.3202 24.3219 31.0342 16.0699 31.0342Z" fill="#005289"/>
<path d="M24.864 11.1142C24.9749 10.9089 25.0663 10.6936 25.137 10.4712C25.1697 10.368 25.1704 10.2574 25.1389 10.1538C25.1074 10.0503 25.0453 9.9587 24.9607 9.89121C24.8761 9.82372 24.773 9.78348 24.665 9.7758C24.5571 9.76811 24.4493 9.79335 24.356 9.84818C23.8436 10.1526 23.2889 10.3794 22.71 10.5212C22.0073 9.88695 21.0946 9.53536 20.148 9.53418C19.6337 9.53457 19.1248 9.63881 18.6518 9.84064C18.1788 10.0425 17.7514 10.3377 17.3952 10.7087C17.0391 11.0797 16.7615 11.5188 16.5791 11.9997C16.3968 12.4806 16.3134 12.9933 16.334 13.5072C14.085 13.2241 12.0313 12.086 10.599 10.3292C10.5441 10.2626 10.474 10.2103 10.3946 10.1766C10.3151 10.143 10.2288 10.129 10.1428 10.1359C10.0568 10.1427 9.97372 10.1703 9.90064 10.2161C9.82756 10.262 9.76663 10.3248 9.72301 10.3992C9.39504 10.9621 9.21677 11.5997 9.20521 12.2511C9.19366 12.9025 9.34921 13.546 9.65701 14.1202C9.58152 14.1329 9.509 14.1594 9.44301 14.1982C9.36216 14.2497 9.29559 14.3208 9.24945 14.4049C9.20331 14.489 9.17909 14.5833 9.17901 14.6792C9.17901 15.8142 9.68401 16.8562 10.498 17.5642L10.463 17.5992C10.4016 17.6687 10.3593 17.753 10.3403 17.8439C10.3214 17.9347 10.3265 18.0289 10.355 18.1172C10.5248 18.6467 10.8082 19.1327 11.1854 19.5413C11.5627 19.9498 12.0246 20.2709 12.539 20.4822C11.4826 20.9975 10.3004 21.1985 9.13301 21.0612C9.01302 21.0489 8.89236 21.0769 8.78993 21.1406C8.68751 21.2043 8.60911 21.3001 8.56701 21.4132C8.52659 21.5271 8.52583 21.6512 8.56486 21.7656C8.60389 21.88 8.68041 21.9778 8.78201 22.0432C10.369 23.0617 12.2153 23.6029 14.101 23.6022C20.281 23.6022 23.975 18.5822 23.975 13.7292L23.974 13.5652C24.5729 13.0976 25.0932 12.5372 25.515 11.9052C25.5789 11.8096 25.6103 11.6961 25.6046 11.5813C25.5989 11.4665 25.5564 11.3566 25.4833 11.2679C25.4103 11.1791 25.3106 11.1162 25.1991 11.0886C25.0876 11.0609 24.9701 11.0699 24.864 11.1142ZM23.119 12.8692C23.0464 12.9214 22.9881 12.9909 22.9493 13.0714C22.9105 13.1519 22.8926 13.2409 22.897 13.3302C22.903 13.4622 22.906 13.5962 22.906 13.7282C22.906 18.0562 19.613 22.5332 14.102 22.5332C13.1191 22.5336 12.1432 22.3687 11.215 22.0452C12.3266 21.8322 13.3708 21.3555 14.26 20.6552C14.3466 20.5869 14.4099 20.4936 14.4414 20.388C14.4729 20.2824 14.4711 20.1696 14.436 20.0651C14.401 19.9606 14.3346 19.8694 14.2458 19.8041C14.157 19.7388 14.0502 19.7025 13.94 19.7002C13.5088 19.6919 13.0856 19.5825 12.7045 19.3807C12.3234 19.1788 11.9951 18.8902 11.746 18.5382C11.999 18.5212 12.247 18.4792 12.488 18.4142C12.6047 18.383 12.7073 18.3131 12.7791 18.2161C12.851 18.1191 12.8878 18.0005 12.8836 17.8799C12.8795 17.7592 12.8345 17.6435 12.7561 17.5517C12.6777 17.4598 12.5705 17.3973 12.452 17.3742C11.965 17.2751 11.5142 17.0455 11.1476 16.71C10.781 16.3744 10.5126 15.9455 10.371 15.4692C10.637 15.5362 10.91 15.5752 11.183 15.5842C11.418 15.5832 11.636 15.4392 11.709 15.2132C11.782 14.9872 11.696 14.7382 11.497 14.6062C11.0265 14.2927 10.6642 13.8416 10.4596 13.3145C10.2551 12.7874 10.2182 12.21 10.354 11.6612C12.091 13.4435 14.4366 14.5048 16.922 14.6332C17.098 14.6342 17.252 14.5712 17.359 14.4422C17.466 14.3132 17.507 14.1422 17.469 13.9782C17.3322 13.3892 17.3934 12.7715 17.6431 12.2208C17.8927 11.6701 18.3169 11.217 18.85 10.9316C19.3831 10.6463 19.9954 10.5446 20.5922 10.6423C21.1889 10.74 21.7368 11.0317 22.151 11.4722C22.2131 11.5384 22.291 11.5878 22.3774 11.6156C22.4639 11.6434 22.5559 11.6488 22.645 11.6312C22.81 11.5982 22.973 11.5602 23.134 11.5162C23.0614 11.5705 22.986 11.6209 22.908 11.6672C22.8043 11.7307 22.7254 11.8277 22.6841 11.9421C22.6429 12.0565 22.6419 12.1815 22.6813 12.2966C22.7206 12.4116 22.798 12.5098 22.9007 12.575C23.0033 12.6402 23.1251 12.6685 23.246 12.6552L23.428 12.6322C23.3278 12.7147 23.2247 12.7938 23.119 12.8692Z" fill="#005289"/>
</svg>
