<svg width="60" height="60" viewBox="0 0 60 60" fill="none" xmlns="http://www.w3.org/2000/svg">
<path d="M1 54.3563H0.5V54.8563V58.9991V59.4991H1H59H59.5V58.9991V54.8563V54.3563H59H1ZM55.3571 11.3563V11.356C55.3569 10.8276 55.1939 10.312 54.8902 9.87952C54.5866 9.44717 54.1573 9.11881 53.6605 8.9391C53.6603 8.93903 53.6602 8.93897 53.66 8.93891L30.8752 0.653507L30.8743 0.653192C30.3093 0.448936 29.6907 0.448936 29.1257 0.653191L29.1248 0.653508L6.34 8.93891C6.33983 8.93897 6.33966 8.93903 6.3395 8.93909C5.84273 9.11881 5.41336 9.44717 5.10979 9.87952C4.80612 10.312 4.64308 10.8276 4.64286 11.356V11.3563V17.5705C4.64286 18.2525 4.91378 18.9066 5.39601 19.3888L5.74956 19.0353L5.39601 19.3888C5.87825 19.8711 6.5323 20.142 7.21429 20.142H8.78571V46.0705H5.14286H4.64286V46.5705V50.7134V51.2134H5.14286H54.8571H55.3571V50.7134V46.5705V46.0705H54.8571H51.2143V20.142H52.7857C53.4677 20.142 54.1218 19.8711 54.604 19.3888C55.0862 18.9066 55.3571 18.2525 55.3571 17.5705V11.3563ZM9.78571 13.1564L30 5.79836L50.2143 13.1564V14.9991H9.78571V13.1564ZM26.3571 46.0705V20.142H33.6429V46.0705H26.3571ZM13.9286 20.142H21.2143V46.0705H13.9286V20.142ZM46.0714 46.0705H38.7857V20.142H46.0714V46.0705Z" fill="#64C0FF" stroke="#64C0FF"/>
</svg>
