<svg width="62" height="59" viewBox="0 0 62 59" fill="none" xmlns="http://www.w3.org/2000/svg">
<path d="M32.3322 38.0639C40.4629 38.0639 47.0541 35.0352 47.0541 31.2991C47.0541 27.563 40.4629 24.5343 32.3322 24.5343C24.2015 24.5343 17.6102 27.563 17.6102 31.2991C17.6102 35.0352 24.2015 38.0639 32.3322 38.0639Z" stroke="#64C0FF" stroke-width="3" stroke-linecap="round" stroke-linejoin="round"/>
<path d="M47.0541 35.6384V31.2991M17.6089 31.2991V38.0639C17.6089 41.7996 24.201 44.8287 32.3322 44.8287C35.0601 44.852 37.7789 44.4786 40.4182 43.7181M27.7276 12.2618C24.2434 10.6647 20.4942 9.891 16.7219 9.99073C8.59212 9.99073 2 13.0183 2 16.754C2 20.4897 8.59212 23.5188 16.7219 23.5188C20.4941 23.6184 24.2434 22.8448 27.7276 21.2477" stroke="#64C0FF" stroke-width="3" stroke-linecap="round" stroke-linejoin="round"/>
<path d="M2 16.7546V23.521C2 27.2567 8.59212 30.2858 16.7219 30.2858C17.0841 30.2858 17.4429 30.2801 17.7985 30.2686" stroke="#64C0FF" stroke-width="3" stroke-linecap="round" stroke-linejoin="round"/>
<path d="M2 23.5203V30.2851C2 34.0223 8.59211 37.0514 16.7219 37.0514C17.0199 37.0514 17.3156 37.0473 17.6089 37.039" stroke="#64C0FF" stroke-width="3" stroke-linecap="round" stroke-linejoin="round"/>
<path d="M42.4484 15.5296C50.5791 15.5296 57.1703 12.5009 57.1703 8.76482C57.1703 5.02871 50.5791 2 42.4484 2C34.3177 2 27.7264 5.02871 27.7264 8.76482C27.7264 12.5009 34.3177 15.5296 42.4484 15.5296Z" stroke="#64C0FF" stroke-width="3" stroke-linecap="round" stroke-linejoin="round"/>
<path d="M27.724 8.7644V15.5292C27.724 19.2665 34.3161 22.2956 42.4473 22.2956C50.5786 22.2956 57.1693 19.2649 57.1693 15.5292V8.7644" stroke="#64C0FF" stroke-width="3" stroke-linecap="round" stroke-linejoin="round"/>
<path d="M46.0532 28.8563C52.4402 28.1169 57.1693 25.4606 57.1693 22.2958V15.5294M27.724 15.5294V22.2958C27.7577 23.223 28.1144 24.1001 28.7199 24.7447" stroke="#64C0FF" stroke-width="3" stroke-linecap="round" stroke-linejoin="round"/>
<path d="M47.0559 35.4874C52.9294 34.5998 57.1704 32.0574 57.1704 29.061V22.2962" stroke="#64C0FF" stroke-width="3" stroke-linecap="round" stroke-linejoin="round"/>
<path d="M50.0976 56.95C55.5665 56.95 60 52.0616 60 46.0315C60 40.0013 55.5665 35.1129 50.0976 35.1129C44.6287 35.1129 40.1953 40.0013 40.1953 46.0315C40.1953 52.0616 44.6287 56.95 50.0976 56.95Z" stroke="#64C0FF" stroke-width="3" stroke-linecap="round" stroke-linejoin="round"/>
<path d="M46.3491 52.2708V39.7925H50.054C51.0492 39.8137 51.9972 40.2644 52.6942 41.048C53.3913 41.8315 53.7818 42.8853 53.7818 43.9829C53.7818 45.0804 53.3913 46.1342 52.6942 46.9177C51.9972 47.7013 51.0492 48.1521 50.054 48.1732H46.3491M50.054 48.1732L53.7589 52.2677" stroke="#64C0FF" stroke-width="3" stroke-linecap="round" stroke-linejoin="round"/>
</svg>
