<svg width="58" height="56" viewBox="0 0 58 56" fill="none" xmlns="http://www.w3.org/2000/svg">
<path d="M52.2 11.6029H45.878C46.197 10.7039 46.4 9.71794 46.4 8.70294C46.4031 6.83193 45.8022 5.0099 44.6866 3.50786C43.571 2.00583 42.0003 0.904054 40.2082 0.366423C38.4161 -0.171208 36.4983 -0.115968 34.7401 0.523927C32.9819 1.16382 31.4773 2.35418 30.45 3.91794L29 5.86094L27.55 3.88894C25.984 1.56894 23.345 0.00294088 20.3 0.00294088C15.486 0.00294088 11.6 3.88894 11.6 8.70294C11.6 9.71794 11.803 10.7039 12.122 11.6029H5.8C2.581 11.6029 0.029 14.1839 0.029 17.4029L0 49.3029C0 52.5219 2.581 55.1029 5.8 55.1029H52.2C55.419 55.1029 58 52.5219 58 49.3029V17.4029C58 14.1839 55.419 11.6029 52.2 11.6029ZM37.7 5.80294C39.295 5.80294 40.6 7.10794 40.6 8.70294C40.6 10.2979 39.295 11.6029 37.7 11.6029C36.105 11.6029 34.8 10.2979 34.8 8.70294C34.8 7.10794 36.105 5.80294 37.7 5.80294ZM20.3 5.80294C21.895 5.80294 23.2 7.10794 23.2 8.70294C23.2 10.2979 21.895 11.6029 20.3 11.6029C18.705 11.6029 17.4 10.2979 17.4 8.70294C17.4 7.10794 18.705 5.80294 20.3 5.80294ZM52.2 49.3029H5.8V43.5029H52.2V49.3029ZM52.2 34.8029H5.8V17.4029H20.532L14.5 25.6099L19.198 29.0029L26.1 19.6069L29 15.6629L31.9 19.6069L38.802 29.0029L43.5 25.6099L37.468 17.4029H52.2V34.8029Z" fill="#8AC9FE"/>
</svg>
