<svg width="62" height="66" viewBox="0 0 62 66" fill="none" xmlns="http://www.w3.org/2000/svg">
<mask id="mask0_6_1540" style="mask-type:alpha" maskUnits="userSpaceOnUse" x="0" y="0" width="62" height="66">
<path d="M2 32.5264H60" stroke="white" stroke-width="4" stroke-linecap="round" stroke-linejoin="round"/>
<path d="M37.1053 2H24.8948C24.0852 2 23.3087 2.32162 22.7363 2.89409C22.1638 3.46657 21.8422 4.24302 21.8422 5.05263V17.2632C21.8422 18.0728 22.1638 18.8492 22.7363 19.4217C23.3087 19.9942 24.0852 20.3158 24.8948 20.3158H37.1053C37.9149 20.3158 38.6914 19.9942 39.2639 19.4217C39.8363 18.8492 40.1579 18.0728 40.1579 17.2632V5.05263C40.1579 4.24302 39.8363 3.46657 39.2639 2.89409C38.6914 2.32162 37.9149 2 37.1053 2ZM18.7895 44.7368H6.579C5.76939 44.7368 4.99294 45.0585 4.42046 45.6309C3.84798 46.2034 3.52637 46.9799 3.52637 47.7895V60C3.52637 60.8096 3.84798 61.5861 4.42046 62.1585C4.99294 62.731 5.76939 63.0526 6.579 63.0526H18.7895C19.5991 63.0526 20.3756 62.731 20.9481 62.1585C21.5205 61.5861 21.8422 60.8096 21.8422 60V47.7895C21.8422 46.9799 21.5205 46.2034 20.9481 45.6309C20.3756 45.0585 19.5991 44.7368 18.7895 44.7368ZM55.4211 44.7368H43.2106C42.401 44.7368 41.6245 45.0585 41.052 45.6309C40.4796 46.2034 40.1579 46.9799 40.1579 47.7895V60C40.1579 60.8096 40.4796 61.5861 41.052 62.1585C41.6245 62.731 42.401 63.0526 43.2106 63.0526H55.4211C56.2307 63.0526 57.0072 62.731 57.5796 62.1585C58.1521 61.5861 58.4737 60.8096 58.4737 60V47.7895C58.4737 46.9799 58.1521 46.2034 57.5796 45.6309C57.0072 45.0585 56.2307 44.7368 55.4211 44.7368Z" fill="#555555" stroke="white" stroke-width="4" stroke-linejoin="round"/>
<path d="M31.0001 32.5263V20.3158M49.3159 44.7368V32.5263M12.6843 44.7368V32.5263" stroke="white" stroke-width="4" stroke-linecap="round" stroke-linejoin="round"/>
</mask>
<g mask="url(#mask0_6_1540)">
<path d="M-5.63159 -4.10522H67.6316V69.1579H-5.63159V-4.10522Z" fill="#64C0FF"/>
</g>
</svg>
