<svg width="60" height="65" viewBox="0 0 60 65" fill="none" xmlns="http://www.w3.org/2000/svg">
<path d="M24.8239 57.4438L24.9585 57.0522L24.5988 56.847L5.36667 45.8742V19.9922L28.0667 7.01655L50.7667 19.9922V26.2573V26.5445L51.0147 26.6892C51.7298 27.1063 52.404 27.5327 53.0376 27.9683C53.6564 28.3937 54.2371 28.8775 54.7798 29.4202L55.6333 30.2738V29.0667V17.4667V17.1765L55.3814 17.0325L28.3147 1.56588L28.0667 1.42412L27.8186 1.56588L0.751931 17.0325L0.5 17.1765V17.4667V48.4V48.6902L0.751931 48.8341L23.1665 61.6425L23.7835 61.995L23.907 61.2952C24.0267 60.6168 24.1563 59.9589 24.2957 59.3214C24.4325 58.6964 24.6084 58.0706 24.8239 57.4438ZM27.6296 41.1866L27.6166 40.9129L27.3789 40.7766L20.8333 37.0239V28.8436L28.0672 24.718L33.6198 27.8702L33.8984 28.0284L34.1585 27.8414C34.7842 27.3917 35.4178 27.002 36.0592 26.6716C36.7094 26.3366 37.3797 26.031 38.0701 25.7549L39.0307 25.3706L38.1327 24.8567L28.315 19.2379L28.0665 19.0957L27.8181 19.238L16.2181 25.8839L15.9667 26.0279V26.3177V39.549V39.8387L16.2181 39.9828L27.8181 46.6286L28.0506 46.7618L28.2903 46.642L28.3507 46.6118L28.7533 46.4105L28.5952 45.989C28.3027 45.2088 28.0787 44.4199 27.923 43.622C27.7666 42.8202 27.6688 42.0085 27.6296 41.1866ZM54.2908 52.0773C53.3784 51.2509 52.3806 50.5319 51.2983 49.9204C52.5604 48.8585 53.5657 47.5904 54.3107 46.1185C55.1723 44.4163 55.6031 42.5968 55.6031 40.6667C55.6031 39.0298 55.288 37.4632 54.6574 35.971C54.0294 34.4847 53.1683 33.1914 52.0733 32.0964C50.9795 31.0026 49.6974 30.1417 48.2313 29.5133C46.758 28.8819 45.1915 28.5671 43.5365 28.5667C41.858 28.5461 40.2771 28.8614 38.7996 29.5157C37.3359 30.1639 36.0557 31.0341 34.9631 32.1267C33.8693 33.2205 33.0083 34.5026 32.38 35.9687C31.7482 37.443 31.4333 39.0106 31.4333 40.6667L31.4334 40.672C31.4543 42.6197 31.8948 44.4474 32.756 46.1487C33.501 47.6205 34.5064 48.8814 35.769 49.9285C34.6883 50.5501 33.6916 51.2652 32.7797 52.0738C31.6746 53.0538 30.7361 54.1801 29.9652 55.4511C29.1978 56.7163 28.6062 58.055 28.1911 59.4662C27.7745 60.8828 27.5667 62.3502 27.5667 63.8667V64.3667H28.0667H31.9333H32.4333V63.8667C32.4333 62.3619 32.7223 60.9278 33.3002 59.5602C33.8796 58.1889 34.6786 57.0061 35.697 56.0069C36.7202 55.0031 37.8974 54.2116 39.2317 53.6315C40.5544 53.0563 41.9864 52.7667 43.5333 52.7667L43.5397 52.7666C45.0401 52.7474 46.47 53.0355 47.8343 53.6311C49.21 54.2318 50.3957 55.033 51.3964 56.0338C52.3971 57.0344 53.1875 58.2092 53.7675 59.5626C54.344 60.9077 54.6333 62.3408 54.6333 63.8667V64.3667H55.1333H59H59.5V63.8667C59.5 62.3307 59.2924 60.8532 58.8755 59.436C58.4603 58.0241 57.8682 56.6944 57.0995 55.448C56.3293 54.1989 55.3926 53.0752 54.2908 52.0773ZM36.8627 43.4579C36.4894 42.5993 36.3006 41.6723 36.3 40.6714C36.3196 39.6427 36.51 38.6994 36.8663 37.8367C37.2227 36.9739 37.7376 36.2152 38.4142 35.5575C39.0959 34.8946 39.8711 34.3747 40.7421 33.996C41.6007 33.6227 42.5278 33.4339 43.5287 33.4333C44.5574 33.4529 45.5006 33.6433 46.3633 33.9996C47.2261 34.356 47.9848 34.8709 48.6425 35.5475C49.3054 36.2293 49.8253 37.0044 50.204 37.8754C50.5773 38.734 50.7661 39.661 50.7667 40.662C50.7471 41.6907 50.5567 42.6339 50.2004 43.4966C49.844 44.3594 49.329 45.1181 48.6525 45.7759C47.9707 46.4387 47.1956 46.9586 46.3246 47.3373C45.466 47.7106 44.539 47.8994 43.538 47.9C42.5093 47.8804 41.5661 47.69 40.7034 47.3337C39.8406 46.9773 39.0819 46.4624 38.4241 45.7858C37.7613 45.1041 37.2414 44.3289 36.8627 43.4579Z" fill="#64C0FF" stroke="#64C0FF"/>
</svg>
