<svg width="58" height="58" viewBox="0 0 58 58" fill="none" xmlns="http://www.w3.org/2000/svg">
<path d="M26.8177 28.7364L15.7669 19.9924C15.5472 19.8167 15.2323 19.9778 15.2323 20.2561V26.5101H4.9798V4.9798H19.9192V14.3535C19.9192 14.5146 20.051 14.6465 20.2121 14.6465H24.6061C24.7672 14.6465 24.899 14.5146 24.899 14.3535V2.05051C24.899 0.915404 23.9836 0 22.8485 0H2.05051C0.915404 0 0 0.915404 0 2.05051V55.9495C0 57.0846 0.915404 58 2.05051 58H22.8485C23.9836 58 24.899 57.0846 24.899 55.9495V43.6465C24.899 43.4854 24.7672 43.3535 24.6061 43.3535H20.2121C20.051 43.3535 19.9192 43.4854 19.9192 43.6465V53.0202H4.9798V31.4899H15.2323V37.7439C15.2323 38.0222 15.5545 38.1833 15.7669 38.0076L26.8177 29.2636C26.9934 29.1318 26.9934 28.8682 26.8177 28.7364ZM55.9495 0H35.1515C34.0164 0 33.101 0.915404 33.101 2.05051V14.3535C33.101 14.5146 33.2328 14.6465 33.3939 14.6465H37.7879C37.949 14.6465 38.0808 14.5146 38.0808 14.3535V4.9798H53.0202V26.5101H42.7677V20.2561C42.7677 19.9778 42.4528 19.8167 42.2331 19.9924L31.175 28.7364C31.0066 28.8682 31.0066 29.1245 31.175 29.2563L42.2331 38.0076C42.4455 38.176 42.7677 38.0222 42.7677 37.7439V31.4899H53.0202V53.0202H38.0808V43.6465C38.0808 43.4854 37.949 43.3535 37.7879 43.3535H33.3939C33.2328 43.3535 33.101 43.4854 33.101 43.6465V55.9495C33.101 57.0846 34.0164 58 35.1515 58H55.9495C57.0846 58 58 57.0846 58 55.9495V2.05051C58 0.915404 57.0846 0 55.9495 0Z" fill="#8AC9FE"/>
</svg>
