<svg width="58" height="55" viewBox="0 0 58 55" fill="none" xmlns="http://www.w3.org/2000/svg">
<path d="M54.9474 13.0653V6.10526C54.9474 2.74737 52.2 0 48.8421 0H6.10526C4.48605 0 2.93315 0.643231 1.78819 1.78819C0.643231 2.93315 0 4.48605 0 6.10526V48.8421C0 50.4613 0.643231 52.0142 1.78819 53.1592C2.93315 54.3041 4.48605 54.9474 6.10526 54.9474H48.8421C52.2 54.9474 54.9474 52.2 54.9474 48.8421V41.8821C55.8701 41.3494 56.6374 40.5845 57.1729 39.6633C57.7084 38.7422 57.9936 37.697 58 36.6316V18.3158C57.9936 17.2503 57.7084 16.2051 57.1729 15.284C56.6374 14.3629 55.8701 13.598 54.9474 13.0653ZM51.8947 18.3158V36.6316H30.5263V18.3158H51.8947ZM6.10526 48.8421V6.10526H48.8421V12.2105H30.5263C27.1684 12.2105 24.4211 14.9579 24.4211 18.3158V36.6316C24.4211 39.9895 27.1684 42.7368 30.5263 42.7368H48.8421V48.8421H6.10526Z" fill="#8AC9FE"/>
<path d="M41.6843 32.0524C44.2132 32.0524 46.2632 30.0024 46.2632 27.4735C46.2632 24.9446 44.2132 22.8945 41.6843 22.8945C39.1554 22.8945 37.1053 24.9446 37.1053 27.4735C37.1053 30.0024 39.1554 32.0524 41.6843 32.0524Z" fill="#8AC9FE"/>
</svg>
